<svg xmlns="http://www.w3.org/2000/svg" xmlns:xlink="http://www.w3.org/1999/xlink" width="500" zoomAndPan="magnify" viewBox="0 0 375 374.999991" height="500" preserveAspectRatio="xMidYMid meet" version="1.0"><defs><clipPath id="9845c4c6cb"><path d="M 1 279 L 374 279 L 374 373.457031 L 1 373.457031 Z M 1 279 " clip-rule="nonzero"/></clipPath></defs><g clip-path="url(#9845c4c6cb)"><path fill="#5cb8e3" d="M 373.003906 325.671875 C 371.800781 330.765625 361.0625 333.167969 344.316406 333.734375 C 349.898438 337.484375 352.582031 340.878906 352.015625 343.570312 C 350.460938 350.574219 328.769531 351.847656 295.914062 351.417969 C 297.964844 353.679688 298.953125 355.875 298.601562 357.925781 C 296.339844 370.941406 248.152344 373.488281 190.425781 373.417969 C 132.769531 372.992188 84.511719 370.023438 82.390625 357.003906 C 82.039062 354.882812 83.027344 352.761719 85.140625 350.496094 C 52.285156 350.632812 30.59375 349.152344 29.109375 342.078125 C 28.617188 339.738281 30.59375 336.914062 34.765625 333.871094 C 15.261719 333.515625 2.6875 331.253906 1.351562 325.664062 C 0.21875 321.207031 6.574219 315.125 18.660156 308.898438 C 21.980469 307.128906 25.726562 305.429688 29.824219 303.734375 C 53.636719 293.617188 91.082031 284.277344 133.691406 281.519531 C 169.347656 279.183594 205.007812 279.183594 240.667969 281.519531 C 293.941406 284.914062 338.878906 298.78125 359.792969 311.160156 C 359.84375 311.160156 359.867188 311.183594 359.867188 311.234375 C 369.1875 316.613281 373.992188 321.777344 373.003906 325.671875 Z M 373.003906 325.671875 " fill-opacity="1" fill-rule="nonzero"/></g><path fill="#fddea0" d="M 44.34375 302.800781 C 44.253906 303.683594 44.28125 304.5625 44.421875 305.441406 C 45.351562 310.714844 50.3125 313.742188 54.726562 315.601562 C 70.066406 321.964844 86.339844 324.140625 102.453125 325.144531 C 107.105469 325.457031 111.753906 325.6875 116.402344 325.84375 C 126.472656 326.230469 136.46875 326.617188 146.542969 327.632812 C 153.808594 328.375 160.988281 329.613281 168.082031 331.351562 C 173.273438 332.667969 178.308594 336.082031 183.578125 336.78125 C 197.988281 338.644531 214.183594 336.703125 228.4375 335.074219 C 243.316406 333.214844 258.039062 329.878906 271.984375 323.511719 C 277.640625 320.949219 283.140625 317.925781 289.109375 316.527344 C 298.558594 314.199219 308.398438 316.371094 318.007812 314.589844 C 323.972656 313.578125 330.714844 309.546875 331.023438 302.71875 L 331.023438 302.097656 C 330.949219 297.753906 328.082031 294.03125 325.214844 291.085938 C 312.894531 278.671875 296.621094 272.773438 280.585938 268.199219 C 275.78125 266.800781 270.898438 265.484375 266.019531 264.320312 C 233.019531 255.863281 198.996094 251.675781 165.214844 254.078125 C 126.472656 256.71875 87.890625 268.121094 54.183594 290.078125 C 49.847656 292.949219 44.886719 297.371094 44.34375 302.800781 Z M 44.34375 302.800781 " fill-opacity="1" fill-rule="nonzero"/><path fill="#d39046" d="M 240.269531 280.882812 C 240.269531 280.882812 267.652344 176.484375 231.84375 97.390625 L 255.015625 88.429688 C 255.015625 88.429688 286.609375 147.484375 282.398438 286.683594 C 282.398438 286.683594 267.480469 282.816406 240.269531 280.882812 Z M 240.269531 280.882812 " fill-opacity="1" fill-rule="nonzero"/><path fill="#02b18a" d="M 258.9375 118.144531 C 258.9375 118.144531 197.183594 150.847656 193.046875 182.578125 C 193.011719 182.90625 192.921875 183.21875 192.789062 183.519531 C 192.652344 183.820312 192.472656 184.09375 192.25 184.335938 C 192.027344 184.582031 191.773438 184.785156 191.488281 184.949219 C 191.199219 185.113281 190.898438 185.226562 190.574219 185.292969 C 190.25 185.359375 189.925781 185.378906 189.597656 185.339844 C 189.269531 185.304688 188.957031 185.21875 188.65625 185.085938 C 188.355469 184.949219 188.082031 184.773438 187.839844 184.550781 C 187.59375 184.332031 187.386719 184.078125 187.222656 183.789062 C 177.289062 166.695312 164.199219 128.496094 229.046875 108.648438 C 229.605469 108.484375 230.078125 108.1875 230.46875 107.761719 C 230.859375 107.332031 231.113281 106.835938 231.226562 106.265625 C 231.339844 105.695312 231.300781 105.140625 231.105469 104.59375 C 230.910156 104.046875 230.585938 103.589844 230.136719 103.222656 C 217.414062 92.898438 179.984375 65.328125 145.960938 67.859375 C 145.320312 67.914062 144.71875 67.785156 144.15625 67.46875 C 143.59375 67.152344 143.171875 66.703125 142.886719 66.125 C 142.601562 65.546875 142.503906 64.9375 142.59375 64.296875 C 142.6875 63.660156 142.949219 63.101562 143.386719 62.625 C 155.304688 49.742188 186.242188 24.652344 223.890625 59.054688 C 224.148438 59.296875 224.441406 59.488281 224.765625 59.628906 C 225.089844 59.773438 225.425781 59.859375 225.777344 59.886719 C 226.132812 59.914062 226.476562 59.878906 226.820312 59.789062 C 227.160156 59.699219 227.480469 59.554688 227.773438 59.355469 C 228.066406 59.15625 228.316406 58.917969 228.527344 58.632812 C 228.738281 58.347656 228.898438 58.039062 229.003906 57.699219 C 229.109375 57.363281 229.15625 57.015625 229.144531 56.664062 C 229.132812 56.308594 229.0625 55.96875 228.933594 55.636719 C 223.28125 41.191406 212.339844 19.359375 196.113281 12.957031 C 195.804688 12.84375 195.523438 12.6875 195.265625 12.484375 C 195.007812 12.28125 194.789062 12.046875 194.605469 11.773438 C 194.421875 11.503906 194.285156 11.210938 194.191406 10.894531 C 194.101562 10.582031 194.058594 10.257812 194.066406 9.933594 C 194.078125 9.605469 194.136719 9.285156 194.246094 8.976562 C 194.351562 8.667969 194.507812 8.382812 194.703125 8.121094 C 194.902344 7.863281 195.136719 7.636719 195.402344 7.449219 C 195.671875 7.261719 195.960938 7.121094 196.273438 7.023438 C 212.351562 2.273438 244.210938 1.460938 261.414062 59.511719 C 261.488281 59.773438 261.597656 60.015625 261.734375 60.25 C 261.875 60.480469 262.042969 60.691406 262.234375 60.878906 C 262.429688 61.066406 262.644531 61.226562 262.878906 61.359375 C 263.113281 61.492188 263.363281 61.59375 263.625 61.660156 C 263.886719 61.730469 264.152344 61.761719 264.421875 61.761719 C 264.691406 61.761719 264.957031 61.726562 265.21875 61.65625 C 265.476562 61.585938 265.726562 61.484375 265.960938 61.347656 C 266.195312 61.214844 266.40625 61.050781 266.601562 60.863281 C 279.070312 48.609375 320.585938 14.410156 355 62.605469 C 355.34375 63.097656 355.535156 63.640625 355.566406 64.242188 C 355.597656 64.839844 355.464844 65.402344 355.175781 65.925781 C 354.882812 66.449219 354.476562 66.855469 353.949219 67.144531 C 353.425781 67.433594 352.863281 67.5625 352.265625 67.527344 C 339.40625 66.863281 308.847656 68.417969 274.484375 92.320312 C 274.207031 92.511719 273.964844 92.746094 273.761719 93.015625 C 273.558594 93.285156 273.402344 93.582031 273.296875 93.902344 C 273.1875 94.222656 273.132812 94.554688 273.132812 94.890625 C 273.132812 95.230469 273.183594 95.5625 273.289062 95.882812 C 273.398438 96.203125 273.550781 96.5 273.753906 96.773438 C 273.953125 97.042969 274.195312 97.277344 274.472656 97.472656 C 274.75 97.664062 275.050781 97.808594 275.375 97.90625 C 275.699219 98.003906 276.03125 98.046875 276.367188 98.035156 C 299.726562 97.199219 352.050781 101.585938 337.125 159.9375 C 337.0625 160.179688 336.972656 160.414062 336.851562 160.636719 C 336.734375 160.859375 336.589844 161.0625 336.421875 161.25 C 336.25 161.4375 336.0625 161.601562 335.855469 161.742188 C 335.648438 161.882812 335.425781 161.996094 335.1875 162.085938 C 334.953125 162.171875 334.710938 162.230469 334.460938 162.261719 C 334.210938 162.289062 333.960938 162.289062 333.710938 162.257812 C 333.460938 162.226562 333.21875 162.167969 332.984375 162.078125 C 332.75 161.988281 332.527344 161.871094 332.320312 161.726562 C 318.480469 152.121094 285.53125 114.457031 258.9375 118.152344 " fill-opacity="1" fill-rule="nonzero"/></svg>